<svg width="140" height="140" viewBox="0 0 140 140" fill="none" xmlns="http://www.w3.org/2000/svg">
<rect width="140" height="140" rx="70" fill="black"/>
<path fill-rule="evenodd" clip-rule="evenodd" d="M33.6085 95.8963C32.8934 95.8963 32.3137 95.3166 32.3137 94.6015V45.3985C32.3137 44.6834 32.8934 44.1036 33.6085 44.1036H58.7771C59.6928 44.1036 60.5711 44.4674 61.2186 45.115L110.526 94.4228C111.07 94.9665 110.685 95.8963 109.916 95.8963H93.8979C92.9822 95.8963 92.1039 95.5326 91.4564 94.885L55.4977 58.9264C54.8502 58.2788 53.972 57.915 53.0562 57.915H47.4199C46.7048 57.915 46.1251 58.4947 46.1251 59.2099V90.3595C46.1251 91.1286 47.0549 91.5137 47.5987 90.9699L58.9252 79.6434C59.5727 78.9959 60.451 78.6321 61.3667 78.6321H65.5474C66.2625 78.6321 66.8422 79.2118 66.8422 79.9269V94.6015C66.8422 95.3166 66.2625 95.8963 65.5474 95.8963H33.6085ZM84.9696 45.3985C84.9696 44.6834 85.5493 44.1036 86.2644 44.1036H107.056C107.825 44.1036 108.21 45.0335 107.666 45.5772L92.0017 61.2415C91.9208 61.3224 91.811 61.3679 91.6965 61.3679H86.2644C85.5493 61.3679 84.9696 60.7882 84.9696 60.0731V45.3985Z" fill="white"/>
</svg>
