<svg width="82" height="82" viewBox="0 0 82 82" fill="none" xmlns="http://www.w3.org/2000/svg">
<path d="M40.9999 79.7733C62.4139 79.7733 79.7733 62.4139 79.7733 40.9999C79.7733 19.586 62.4139 2.22656 40.9999 2.22656C19.586 2.22656 2.22656 19.586 2.22656 40.9999C2.22656 62.4139 19.586 79.7733 40.9999 79.7733Z" fill="black" stroke="black" stroke-width="3.25"/>
<path d="M39.6693 15.4128H28.9066C28.4669 15.4128 28.1776 15.8989 28.409 16.2808L33.7903 25.5968C34.2069 26.3143 34.2069 27.1938 33.7903 27.9114L17.3455 56.4033C17.1256 56.7852 17.4034 57.2713 17.8431 57.2713H28.6057C29.4274 57.2713 30.1912 56.8315 30.6078 56.114L40.5025 38.9749C40.7224 38.593 41.2894 38.593 41.5093 38.9749L46.2657 47.3303C46.4856 47.7122 46.2078 48.1983 45.7681 48.1983H38.7318C38.2805 48.1983 38.0028 48.6843 38.2342 49.0662L42.3773 56.1256C42.7939 56.8315 43.5577 57.2713 44.3794 57.2713H64.1918C64.6315 57.2713 64.9209 56.7852 64.6894 56.4033L41.6945 16.5701C41.2547 15.8642 40.4909 15.4128 39.6693 15.4128Z" fill="url(#paint0_linear_443_749)"/>
<path d="M39.6692 15.4128H28.9066C28.4668 15.4128 28.1775 15.8989 28.4089 16.2808L33.7902 25.5968C34.2069 26.3143 41.2893 38.5814 41.5092 38.9749L46.2656 47.3303C46.4855 47.7122 46.2078 48.1983 45.768 48.1983H38.7318C38.2804 48.1983 38.0027 48.6843 38.2342 49.0662L42.3772 56.1256C42.7938 56.8315 43.5576 57.2713 44.3793 57.2713H64.1917C64.6315 57.2713 64.9208 56.7852 64.6894 56.4033L41.6944 16.5701C41.2546 15.8642 40.4908 15.4128 39.6692 15.4128Z" fill="url(#paint1_linear_443_749)"/>
<path d="M39.6692 15.4128H28.9066C28.4668 15.4128 28.1775 15.8989 28.4089 16.2808L51.9709 57.2944L64.1686 57.2597C64.6084 57.2597 64.8977 56.7737 64.6662 56.3918L41.6712 16.5585C41.2546 15.8642 40.4908 15.4128 39.6692 15.4128Z" fill="white"/>
<path d="M39.6691 15.4243H28.9065C28.4667 15.4243 28.1774 15.9104 28.4089 16.2923L33.7902 25.6083C34.2068 26.3258 34.2068 27.2053 33.7902 27.9228L17.3338 56.4148C17.1139 56.7967 17.3917 57.2828 17.8314 57.2828H28.594C29.4157 57.2828 30.1795 56.843 30.5961 56.1255L40.4908 38.9863C40.7107 38.6044 41.2777 38.6044 41.4976 38.9863L46.254 47.3418C46.4739 47.7237 46.1961 48.2098 45.7564 48.2098H38.7201C38.2688 48.2098 37.9911 48.6958 38.2225 49.0777L42.3656 56.1371C42.7822 56.843 43.546 57.2828 44.3676 57.2828H64.1801C64.6199 57.2828 64.9092 56.7967 64.6777 56.4148L41.6712 16.5816C41.2546 15.8641 40.4908 15.4243 39.6691 15.4243Z" fill="url(#paint2_linear_443_749)"/>
<path d="M39.6692 15.4243H28.9066C28.4668 15.4243 28.1775 15.9104 28.4089 16.2923L33.7902 25.6083C34.2069 26.3258 41.2894 38.5929 41.5092 38.9863L46.2656 47.3418C46.4855 47.7237 46.2078 48.2098 45.768 48.2098H38.7318C38.2805 48.2098 38.0027 48.6958 38.2342 49.0777L42.3772 56.1371C42.7938 56.843 43.5576 57.2828 44.3793 57.2828H64.1917C64.6315 57.2828 64.9208 56.7967 64.6894 56.4148L41.6713 16.5816C41.2546 15.8641 40.4908 15.4243 39.6692 15.4243Z" fill="url(#paint3_linear_443_749)"/>
<path d="M39.6692 15.4243H28.9066C28.4668 15.4243 28.1775 15.9104 28.4089 16.2923L51.971 57.3175L64.1686 57.2828C64.6083 57.2828 64.8977 56.7967 64.6662 56.4148L41.6713 16.5816C41.2546 15.8641 40.4908 15.4243 39.6692 15.4243Z" fill="url(#paint4_linear_443_749)"/>
<defs>
<linearGradient id="paint0_linear_443_749" x1="39.4976" y1="48.6946" x2="63.0116" y2="7.43739" gradientUnits="userSpaceOnUse">
<stop stop-color="white"/>
<stop offset="1"/>
</linearGradient>
<linearGradient id="paint1_linear_443_749" x1="41.5848" y1="36.3462" x2="69.9028" y2="36.3462" gradientUnits="userSpaceOnUse">
<stop stop-color="white"/>
<stop offset="1"/>
</linearGradient>
<linearGradient id="paint2_linear_443_749" x1="35.5124" y1="55.6964" x2="54.4274" y2="22.5087" gradientUnits="userSpaceOnUse">
<stop stop-color="#29B0A6"/>
<stop offset="1" stop-color="#005178"/>
</linearGradient>
<linearGradient id="paint3_linear_443_749" x1="41.5848" y1="36.356" x2="60.2069" y2="36.356" gradientUnits="userSpaceOnUse">
<stop stop-color="#29B0A6"/>
<stop offset="1" stop-color="#005077"/>
</linearGradient>
<linearGradient id="paint4_linear_443_749" x1="49.577" y1="39.6512" x2="36.6581" y2="26.7323" gradientUnits="userSpaceOnUse">
<stop stop-color="#27B0A6"/>
<stop offset="1" stop-color="#42AD7F"/>
</linearGradient>
</defs>
</svg>
