<svg width="140" height="140" viewBox="0 0 140 140" fill="none" xmlns="http://www.w3.org/2000/svg">
<rect width="140" height="140" rx="70" fill="black"/>
<path fill-rule="evenodd" clip-rule="evenodd" d="M27.5 100C26.6716 100 26 99.3284 26 98.5V41.5C26 40.6716 26.6716 40 27.5 40H56.6569C57.7177 40 58.7351 40.4214 59.4853 41.1716L116.607 98.2929C117.237 98.9229 116.79 100 115.9 100H97.3431C96.2823 100 95.2649 99.5786 94.5147 98.8284L52.8579 57.1716C52.1077 56.4214 51.0903 56 50.0294 56H43.5C42.6716 56 42 56.6716 42 57.5V93.5858C42 94.4767 43.0771 94.9229 43.7071 94.2929L56.8284 81.1716C57.5786 80.4214 58.596 80 59.6569 80H64.5C65.3284 80 66 80.6716 66 81.5V98.5C66 99.3284 65.3284 100 64.5 100H27.5ZM87 41.5C87 40.6716 87.6716 40 88.5 40H112.586C113.477 40 113.923 41.0771 113.293 41.7071L95.1464 59.8536C95.0527 59.9473 94.9255 60 94.7929 60H88.5C87.6716 60 87 59.3284 87 58.5V41.5Z" fill="white"/>
</svg>
