<svg width="128" height="128" viewBox="0 0 128 128" fill="none" xmlns="http://www.w3.org/2000/svg">
<g clip-path="url(#clip0_1445_762)">
<path fill-rule="evenodd" clip-rule="evenodd" d="M64 128C99.3462 128 128 99.3462 128 64C128 28.6538 99.3462 0 64 0C28.6538 0 0 28.6538 0 64C0 99.3462 28.6538 128 64 128ZM55.8546 40.7152C53.2573 39.2157 49.9361 40.1056 48.4366 42.7029L26.7153 80.3254C25.2157 82.9227 26.1056 86.2438 28.7029 87.7433C31.3002 89.2429 34.6213 88.353 36.1209 85.7557L57.8422 48.1332C59.3418 45.5359 58.4519 42.2148 55.8546 40.7152ZM77.5758 40.7152C74.9785 39.2157 71.6573 40.1056 70.1578 42.7029L48.4364 80.3254C46.9369 82.9227 47.8268 86.2438 50.4241 87.7433C53.0214 89.2429 56.3425 88.353 57.8421 85.7557L79.5634 48.1332C81.063 45.5359 80.173 42.2148 77.5758 40.7152ZM91.8792 42.7029C93.3788 40.1056 96.6999 39.2157 99.2972 40.7152C101.894 42.2148 102.784 45.5359 101.285 48.1332L79.5635 85.7557C78.0639 88.353 74.7428 89.2429 72.1455 87.7433C69.5482 86.2438 68.6583 82.9227 70.1579 80.3254L91.8792 42.7029Z" fill="black"/>
</g>
<defs>
<clipPath id="clip0_1445_762">
<rect width="128" height="128" rx="64" fill="white"/>
</clipPath>
</defs>
</svg>
