<svg width="32" height="26" viewBox="0 0 32 26" fill="none" xmlns="http://www.w3.org/2000/svg">
<path d="M27.0894 2.82657C25.0498 1.89073 22.8626 1.20124 20.5759 0.806344C20.5342 0.798723 20.4926 0.817769 20.4712 0.855862C20.1899 1.35615 19.8783 2.00881 19.6601 2.52181C17.2005 2.15358 14.7536 2.15358 12.3444 2.52181C12.1262 1.99741 11.8033 1.35615 11.5208 0.855862C11.4993 0.81904 11.4577 0.799994 11.4161 0.806344C9.13055 1.19998 6.94341 1.88947 4.90258 2.82657C4.88491 2.83419 4.86977 2.8469 4.85972 2.86339C0.711189 9.06121 -0.425267 15.1067 0.13224 21.0772C0.134763 21.1064 0.15116 21.1344 0.173864 21.1521C2.91095 23.1622 5.56228 24.3824 8.16437 25.1913C8.20602 25.204 8.25014 25.1888 8.27664 25.1545C8.89217 24.3139 9.44086 23.4276 9.9113 22.4955C9.93906 22.441 9.91256 22.3762 9.85582 22.3546C8.98551 22.0245 8.1568 21.6219 7.35964 21.1648C7.29659 21.128 7.29154 21.0378 7.34954 20.9946C7.5173 20.8689 7.68509 20.7381 7.84527 20.6061C7.87425 20.582 7.91464 20.5769 7.94871 20.5921C13.1857 22.9831 18.8554 22.9831 24.0306 20.5921C24.0647 20.5756 24.1051 20.5807 24.1353 20.6048C24.2955 20.7369 24.4633 20.8689 24.6323 20.9946C24.6903 21.0378 24.6865 21.128 24.6235 21.1648C23.8263 21.6308 22.9976 22.0245 22.126 22.3533C22.0693 22.3749 22.044 22.441 22.0718 22.4955C22.5523 23.4263 23.101 24.3126 23.7052 25.1532C23.7304 25.1888 23.7758 25.204 23.8175 25.1913C26.4322 24.3824 29.0835 23.1622 31.8206 21.1521C31.8446 21.1344 31.8597 21.1077 31.8622 21.0785C32.5294 14.1759 30.7447 8.17999 27.131 2.86466C27.1221 2.8469 27.107 2.83419 27.0894 2.82657ZM10.6934 17.4418C9.11666 17.4418 7.81751 15.9943 7.81751 14.2165C7.81751 12.4388 9.09147 10.9913 10.6934 10.9913C12.3078 10.9913 13.5944 12.4515 13.5692 14.2165C13.5692 15.9943 12.2952 17.4418 10.6934 17.4418ZM21.3263 17.4418C19.7497 17.4418 18.4505 15.9943 18.4505 14.2165C18.4505 12.4388 19.7244 10.9913 21.3263 10.9913C22.9408 10.9913 24.2274 12.4515 24.2022 14.2165C24.2022 15.9943 22.9408 17.4418 21.3263 17.4418Z" fill="#ADB5BD"/>
</svg>
