<svg width="74" height="74" viewBox="0 0 74 74" fill="none" xmlns="http://www.w3.org/2000/svg">
<circle cx="37" cy="37" r="35.5" fill="#313953" stroke="white"/>
<path fill-rule="evenodd" clip-rule="evenodd" d="M28.4694 38.4142C28.8445 38.7892 29.0553 39.298 29.0553 39.8285V53.6795C29.0553 54.125 28.5168 54.3481 28.2018 54.0331L13.7519 39.5858C13.3768 39.2107 13.166 38.7019 13.166 38.1714V24.3204C13.166 23.875 13.7045 23.6519 14.0195 23.9668L28.4694 38.4142ZM60.8342 24.3204C60.8342 23.875 60.2957 23.6519 59.9807 23.9668L29.9094 54.0329C29.5944 54.3479 29.8174 54.8865 30.2629 54.8865H44.1166C44.647 54.8865 45.1556 54.6758 45.5307 54.3008L60.2483 39.5858C60.6234 39.2107 60.8342 38.7019 60.8342 38.1714V24.3204Z" fill="url(#paint0_linear_616_599)"/>
<defs>
<linearGradient id="paint0_linear_616_599" x1="13.166" y1="39.3529" x2="60.8342" y2="39.3529" gradientUnits="userSpaceOnUse">
<stop stop-color="#6B9990"/>
<stop offset="0.445493" stop-color="#6B7EB1"/>
<stop offset="1" stop-color="#BA91AD"/>
</linearGradient>
</defs>
</svg>
