<svg width="587" height="55" viewBox="0 0 587 55" fill="none" xmlns="http://www.w3.org/2000/svg">
<g clip-path="url(#clip0_443_654)">
<path d="M0 0H586.667L565.192 55H31.0049L0 33.0932V0Z" fill="url(#paint0_linear_443_654)"/>
<path d="M60.582 8.77636C60.582 8.70013 60.6075 8.62391 60.6584 8.54768C60.7349 8.47145 60.8241 8.43333 60.926 8.43333H67.921C68.0229 8.43333 68.0993 8.47145 68.1503 8.54768C68.2268 8.62391 68.265 8.70013 68.265 8.77636V26.5757C68.265 29.2183 67.0546 31.3781 64.6337 33.0552L44.3751 45.5948C42.0562 46.8906 39.75 46.8906 37.4566 45.5948L17.1597 33.0552C14.7643 31.3781 13.5667 29.2183 13.5667 26.5757V8.77636C13.5667 8.70013 13.5921 8.62391 13.6431 8.54768C13.7195 8.47145 13.796 8.43333 13.8724 8.43333H20.8674C20.9693 8.43333 21.0458 8.47145 21.0967 8.54768C21.1732 8.62391 21.2114 8.70013 21.2114 8.77636V24.7462C21.2114 25.8897 21.7338 26.8171 22.7786 27.5286L39.75 38.0481C40.5145 38.4801 41.2789 38.4801 42.0434 38.0481L59.053 27.5286C60.0723 26.8171 60.582 25.8897 60.582 24.7462V8.77636Z" fill="white"/>
<path d="M87.4151 18.2287C87.4151 17.3394 87.7337 16.5771 88.3707 15.9418C89.0078 15.2812 89.785 14.9509 90.7024 14.9509H134.048C134.15 14.9509 134.227 14.9255 134.278 14.8746C134.354 14.7984 134.392 14.7222 134.392 14.646V8.77636C134.392 8.67472 134.354 8.5985 134.278 8.54768C134.227 8.47145 134.15 8.43333 134.048 8.43333H90.7024C87.67 8.43333 85.0835 9.50053 82.9429 11.6349C80.8279 13.7439 79.7704 16.3103 79.7704 19.334V35.6469C79.7704 38.6707 80.8279 41.2497 82.9429 43.3841C85.0835 45.4931 87.67 46.5476 90.7024 46.5476H134.048C134.15 46.5476 134.227 46.5222 134.278 46.4714C134.354 46.3952 134.392 46.3062 134.392 46.2046V40.335C134.392 40.2588 134.354 40.1952 134.278 40.1444C134.227 40.0682 134.15 40.0301 134.048 40.0301H90.7024C89.785 40.0301 89.0078 39.7125 88.3707 39.0772C87.7337 38.4166 87.4151 37.6416 87.4151 36.7522V30.7683H128.582C128.684 30.7683 128.761 30.7429 128.812 30.6921C128.888 30.6158 128.926 30.5269 128.926 30.4253V24.5557C128.926 24.454 128.888 24.3778 128.812 24.327C128.761 24.2508 128.684 24.2126 128.582 24.2126H87.4151V18.2287Z" fill="white"/>
<path d="M200.481 23.1454C200.481 25.3561 199.895 27.3507 198.723 29.1294C197.551 30.8826 195.996 32.1912 194.06 33.0552L194.213 33.3601L200.29 46.0902C200.316 46.1919 200.303 46.2935 200.252 46.3952C200.201 46.4968 200.112 46.5476 199.984 46.5476H192.225C192.098 46.5476 191.996 46.4841 191.919 46.357L186.033 34.0461H153.542V46.2427C153.542 46.3189 153.504 46.3952 153.428 46.4714C153.377 46.5222 153.3 46.5476 153.198 46.5476H146.203C146.127 46.5476 146.051 46.5222 145.974 46.4714C145.923 46.3952 145.898 46.3189 145.898 46.2427V8.77636C145.898 8.67472 145.923 8.5985 145.974 8.54768C146.051 8.47145 146.127 8.43333 146.203 8.43333H189.587C192.594 8.43333 195.155 9.50053 197.27 11.6349C199.411 13.7439 200.481 16.3103 200.481 19.334V23.1454ZM153.542 27.4905H189.587C190.479 27.4905 191.244 27.1729 191.881 26.5376C192.518 25.9024 192.837 25.1274 192.837 24.2126V18.2287C192.837 17.3394 192.518 16.5771 191.881 15.9418C191.244 15.3066 190.479 14.989 189.587 14.989H153.542V27.4905Z" fill="white"/>
<path d="M211.948 8.77636C211.948 8.67472 211.974 8.5985 212.025 8.54768C212.101 8.47145 212.178 8.43333 212.254 8.43333H266.226C266.303 8.43333 266.366 8.47145 266.417 8.54768C266.494 8.5985 266.532 8.67472 266.532 8.77636V14.646C266.532 14.7222 266.494 14.7984 266.417 14.8746C266.366 14.9255 266.303 14.9509 266.226 14.9509H243.063V46.2046C243.063 46.3062 243.024 46.3952 242.948 46.4714C242.897 46.5222 242.833 46.5476 242.757 46.5476H235.762C235.66 46.5476 235.571 46.5222 235.494 46.4714C235.443 46.3952 235.418 46.3062 235.418 46.2046V14.9509H212.254C212.178 14.9509 212.101 14.9255 212.025 14.8746C211.974 14.7984 211.948 14.7222 211.948 14.646V8.77636Z" fill="white"/>
<path d="M285.644 8.77636C285.644 8.67472 285.606 8.5985 285.529 8.54768C285.478 8.47145 285.402 8.43333 285.3 8.43333H278.305C278.229 8.43333 278.152 8.47145 278.076 8.54768C278.025 8.5985 277.999 8.67472 277.999 8.77636V46.2427C277.999 46.3189 278.025 46.3952 278.076 46.4714C278.152 46.5222 278.229 46.5476 278.305 46.5476H285.3C285.402 46.5476 285.478 46.5222 285.529 46.4714C285.606 46.3952 285.644 46.3189 285.644 46.2427V8.77636Z" fill="white"/>
<path d="M350.625 8.73825C350.625 8.66202 350.586 8.5985 350.51 8.54768C350.459 8.47145 350.382 8.43333 350.281 8.43333H298.525C298.449 8.43333 298.373 8.47145 298.296 8.54768C298.245 8.5985 298.22 8.66202 298.22 8.73825V14.646C298.22 14.7222 298.245 14.7984 298.296 14.8746C298.373 14.9255 298.449 14.9509 298.525 14.9509H342.98V17.1234C342.98 17.9111 342.738 18.5971 342.254 19.1816C341.769 19.766 341.145 20.1471 340.381 20.325L304.871 27.9097C302.577 28.4433 300.704 29.5995 299.252 31.3781C297.825 33.1568 297.111 35.2023 297.111 37.5145V46.2046C297.111 46.3062 297.137 46.3952 297.188 46.4714C297.264 46.5222 297.353 46.5476 297.455 46.5476H349.21C349.287 46.5476 349.35 46.5222 349.401 46.4714C349.478 46.3952 349.516 46.3062 349.516 46.2046V40.335C349.516 40.2333 349.478 40.1571 349.401 40.1063C349.35 40.0301 349.287 39.992 349.21 39.992H304.756V37.8194C304.756 37.0572 304.998 36.3838 305.482 35.7994C305.966 35.215 306.591 34.8338 307.355 34.656L342.865 27.0712C345.159 26.5376 347.019 25.3815 348.446 23.6028C349.898 21.8242 350.625 19.7787 350.625 17.4664V8.73825Z" fill="white"/>
<path d="M405.782 8.43333C408.814 8.43333 411.388 9.50053 413.503 11.6349C415.643 13.7439 416.714 16.3103 416.714 19.334V35.6469C416.714 38.6707 415.643 41.2497 413.503 43.3841C411.388 45.4931 408.814 46.5476 405.782 46.5476H373.024C370.017 46.5476 367.443 45.4931 365.302 43.3841C363.162 41.2497 362.092 38.6707 362.092 35.6469V19.334C362.092 16.3103 363.162 13.7439 365.302 11.6349C367.443 9.50053 370.017 8.43333 373.024 8.43333H405.782ZM409.069 18.2287C409.069 17.3394 408.75 16.5771 408.113 15.9418C407.476 15.2812 406.699 14.9509 405.782 14.9509H373.024C372.132 14.9509 371.355 15.2812 370.692 15.9418C370.055 16.5771 369.736 17.3394 369.736 18.2287V36.7522C369.736 37.6416 370.055 38.4166 370.692 39.0772C371.355 39.7125 372.132 40.0301 373.024 40.0301H405.782C406.699 40.0301 407.476 39.7125 408.113 39.0772C408.75 38.4166 409.069 37.6416 409.069 36.7522V18.2287Z" fill="white"/>
<path d="M475.158 8.77636C475.158 8.67472 475.183 8.5985 475.234 8.54768C475.311 8.47145 475.4 8.43333 475.502 8.43333H482.497C482.573 8.43333 482.637 8.47145 482.688 8.54768C482.764 8.5985 482.803 8.67472 482.803 8.77636V46.2427C482.803 46.3189 482.764 46.3952 482.688 46.4714C482.637 46.5222 482.573 46.5476 482.497 46.5476H468.278H468.201C465.271 46.4714 462.964 45.239 461.283 42.8505L443.508 16.4373C442.77 15.4718 441.852 14.989 440.756 14.989H435.864V46.2427C435.864 46.3189 435.826 46.3952 435.749 46.4714C435.698 46.5222 435.622 46.5476 435.52 46.5476H428.525C428.448 46.5476 428.372 46.5222 428.295 46.4714C428.244 46.3952 428.219 46.3189 428.219 46.2427V8.77636C428.219 8.67472 428.244 8.5985 428.295 8.54768C428.372 8.47145 428.448 8.43333 428.525 8.43333H442.744H442.82C445.751 8.53497 448.057 9.78004 449.739 12.1685L467.513 38.5436C468.227 39.5346 469.144 40.0301 470.265 40.0301H475.158V8.77636Z" fill="white"/>
<path d="M527.228 8.89071C527.279 8.76366 527.266 8.66202 527.19 8.58579C527.139 8.48415 527.049 8.43333 526.922 8.43333H520.004C519.876 8.43333 519.774 8.49686 519.698 8.62391L503.606 46.0902C503.555 46.1919 503.555 46.2935 503.606 46.3952C503.682 46.4968 503.771 46.5476 503.873 46.5476H510.83C510.957 46.5476 511.059 46.4841 511.136 46.357L527.228 8.89071Z" fill="white"/>
<path d="M544.465 8.89071C544.516 8.76366 544.504 8.66202 544.427 8.58579C544.376 8.48415 544.287 8.43333 544.16 8.43333H537.241C537.114 8.43333 537.012 8.49686 536.935 8.62391L520.843 46.0902C520.792 46.1919 520.792 46.2935 520.843 46.3952C520.919 46.4968 521.009 46.5476 521.111 46.5476H528.067C528.195 46.5476 528.297 46.4841 528.373 46.357L544.465 8.89071Z" fill="white"/>
<path d="M561.703 8.89071C561.754 8.76366 561.741 8.66202 561.665 8.58579C561.614 8.48415 561.524 8.43333 561.397 8.43333H554.478C554.351 8.43333 554.249 8.49686 554.173 8.62391L538.08 46.0902C538.029 46.1919 538.029 46.2935 538.08 46.3952C538.157 46.4968 538.246 46.5476 538.348 46.5476H545.305C545.432 46.5476 545.534 46.4841 545.611 46.357L561.703 8.89071Z" fill="white"/>
</g>
<defs>
<linearGradient id="paint0_linear_443_654" x1="2.98948e-06" y1="27.5" x2="586.667" y2="27.5" gradientUnits="userSpaceOnUse">
<stop stop-color="#6B9990"/>
<stop offset="0.445493" stop-color="#6B7EB1"/>
<stop offset="1" stop-color="#BA91AD"/>
</linearGradient>
<clipPath id="clip0_443_654">
<rect width="586.667" height="55" fill="white"/>
</clipPath>
</defs>
</svg>
