<svg width="500" height="500" viewBox="0 0 500 500" fill="none" xmlns="http://www.w3.org/2000/svg">
<rect width="500" height="500" rx="250" fill="#313953"/>
<path fill-rule="evenodd" clip-rule="evenodd" d="M200.99 257.657C202.49 259.157 203.333 261.192 203.333 263.314V348.505C203.333 350.287 201.179 351.179 199.919 349.919L112.343 262.343C110.843 260.843 110 258.808 110 256.686V171.495C110 169.713 112.154 168.821 113.414 170.081L200.99 257.657ZM390 171.495C390 169.713 387.846 168.821 386.586 170.081L206.748 349.919C205.488 351.179 206.38 353.333 208.162 353.333H293.353C295.475 353.333 297.51 352.491 299.01 350.99L387.657 262.343C389.157 260.843 390 258.808 390 256.686V171.495Z" fill="url(#paint0_linear_885_791)"/>
<defs>
<linearGradient id="paint0_linear_885_791" x1="127.552" y1="218.133" x2="306.583" y2="385.433" gradientUnits="userSpaceOnUse">
<stop stop-color="#8DE0F2"/>
<stop offset="0.46049" stop-color="#4982F1"/>
<stop offset="1" stop-color="#C158F2"/>
</linearGradient>
</defs>
</svg>
